# xmcd
#
# Track frame offsets:
#	150
#	11098
#	25398
#	41231
#	56114
#	74233
#	88442
#	105936
#	123153
#	137311
#	152475
#
# Disc length: 2219 seconds
#
# Revision: 0
# Processed by: cddbd v1.5.2PL0 Copyright (c) Steve Scherf et al.
# Submitted via: EasyCDDAExtractor 10.0.2.1
#
DISCID=9608a90b
DTITLE=New Traditions - Almost Home
DYEAR=2000
DGENRE=Gospel
TTITLE0=Some Glad Tomorrow
TTITLE1=Almost Home
TTITLE2=On The Hills Of Glory
TTITLE3=Power In Prayer
TTITLE4=Where The Blood Is Applied
TTITLE5=I'll Keep Holding On
TTITLE6=Don't Neglect The Rose
TTITLE7=The Lifeboat
TTITLE8=Christ Never Changes
TTITLE9=The Begger And The King
TTITLE10=I Can Win
EXTD=
EXTT0=
EXTT1=
EXTT2=
EXTT3=
EXTT4=
EXTT5=
EXTT6=
EXTT7=
EXTT8=
EXTT9=
EXTT10=
PLAYORDER=
